<?xml version="1.0" standalone="no"?>
<!DOCTYPE svg PUBLIC "-//W3C//DTD SVG 20010904//EN"
 "http://www.w3.org/TR/2001/REC-SVG-20010904/DTD/svg10.dtd">
<svg version="1.0" xmlns="http://www.w3.org/2000/svg"
 width="1200.000000pt" height="1200.000000pt" viewBox="0 0 1200.000000 1200.000000"
 preserveAspectRatio="xMidYMid meet">

<g transform="translate(0.000000,1200.000000) scale(0.100000,-0.100000)"
fill="#000000" stroke="none">
<path d="M5670 11789 c-1056 -61 -2073 -407 -2935 -997 -663 -454 -1231 -1045
-1651 -1717 -495 -790 -779 -1650 -865 -2615 -19 -211 -17 -741 4 -965 76
-812 305 -1575 678 -2257 714 -1306 1888 -2287 3289 -2747 598 -196 1163 -285
1810 -285 387 0 676 24 1030 88 1969 353 3625 1710 4363 3577 675 1707 498
3646 -477 5204 -231 370 -478 679 -804 1009 -417 421 -852 746 -1377 1029
-923 498 -2007 738 -3065 676z m565 -229 c1027 -47 1958 -346 2804 -897 1121
-732 1950 -1854 2312 -3128 147 -519 212 -987 212 -1535 0 -493 -47 -878 -164
-1348 -432 -1745 -1696 -3181 -3374 -3837 -515 -201 -1025 -317 -1610 -366
-296 -25 -765 -13 -1095 27 -1408 171 -2701 880 -3611 1979 -963 1164 -1409
2667 -1239 4175 199 1763 1222 3314 2775 4207 748 430 1617 682 2489 722 248
11 270 12 501 1z"/>
<path d="M5092 11358 c-9 -9 -12 -104 -12 -367 l0 -356 -198 -48 c-108 -27
-244 -64 -302 -82 -57 -19 -105 -33 -106 -32 -1 1 -81 140 -178 309 -97 168
-184 309 -192 312 -17 6 -45 -9 -404 -216 -118 -68 -427 -247 -687 -397 -259
-149 -474 -279 -477 -287 -3 -9 69 -144 174 -326 l180 -312 -105 -98 c-57 -54
-157 -155 -222 -223 l-119 -125 -312 180 c-178 103 -317 177 -326 174 -8 -3
-59 -83 -113 -177 -55 -95 -256 -442 -446 -773 -223 -385 -345 -607 -341 -617
3 -9 144 -96 312 -193 169 -97 308 -177 309 -178 1 -1 -13 -49 -32 -106 -18
-58 -55 -194 -82 -302 l-48 -198 -356 0 c-288 0 -359 -3 -368 -14 -8 -10 -10
-256 -9 -912 l3 -899 364 -5 364 -5 52 -210 c29 -115 67 -253 83 -305 17 -52
30 -95 29 -96 -1 -1 -138 -80 -305 -175 -167 -96 -308 -182 -313 -192 -8 -15
75 -166 436 -792 246 -425 453 -776 461 -779 9 -3 149 72 324 173 l310 179
224 -224 224 -223 -179 -310 c-99 -173 -176 -317 -173 -325 8 -22 1549 -907
1567 -900 9 3 96 144 193 312 97 169 177 308 178 309 1 1 49 -13 106 -32 58
-18 194 -55 302 -82 l198 -48 0 -356 c0 -263 3 -358 12 -367 17 -17 1799 -17
1816 0 9 9 12 104 12 367 l0 356 198 48 c108 27 244 64 302 82 57 19 105 33
106 32 1 -1 81 -140 178 -309 97 -168 184 -309 193 -312 14 -6 186 92 1388
786 93 54 173 104 177 113 6 10 -45 107 -171 325 l-179 310 224 224 224 224
310 -179 c175 -101 315 -176 324 -173 8 3 215 354 461 779 361 626 444 777
436 792 -5 10 -146 96 -313 192 -167 95 -304 174 -305 175 -1 1 12 44 29 96
16 52 54 190 83 305 l52 210 364 5 364 5 3 899 c1 656 -1 902 -9 912 -9 11
-80 14 -368 14 l-356 0 -48 198 c-27 108 -64 244 -82 302 -19 57 -33 105 -32
106 1 1 140 81 309 178 168 97 309 184 312 193 7 18 -877 1558 -900 1567 -8 3
-149 -72 -325 -173 l-310 -179 -223 224 -224 224 179 310 c106 184 176 315
173 324 -3 8 -218 138 -477 287 -260 150 -569 329 -687 397 -359 207 -387 222
-404 216 -8 -3 -95 -144 -192 -312 -97 -169 -177 -308 -178 -309 -1 -1 -49 13
-106 32 -58 18 -194 55 -302 82 l-198 48 0 355 c0 264 -3 359 -12 368 -17 17
-1799 17 -1816 0z m1308 -827 c0 -275 3 -361 13 -368 6 -6 44 -13 82 -17 311
-29 752 -144 1096 -285 70 -28 133 -49 140 -46 8 3 93 143 189 310 96 168 179
305 184 305 4 0 161 -88 347 -196 l339 -196 -14 -26 c-8 -15 -86 -152 -175
-305 -89 -153 -161 -287 -161 -297 0 -12 39 -49 107 -101 281 -217 546 -482
762 -761 52 -68 89 -108 101 -108 10 0 154 79 321 175 166 97 305 172 309 168
14 -15 390 -672 390 -680 0 -4 -138 -87 -305 -183 -168 -96 -307 -181 -310
-188 -3 -8 21 -80 54 -161 139 -344 248 -768 277 -1076 4 -38 11 -76 17 -82 7
-10 93 -13 368 -13 l359 0 0 -400 0 -400 -359 0 c-275 0 -361 -3 -368 -12 -6
-7 -13 -44 -17 -83 -29 -308 -138 -732 -277 -1076 -33 -81 -57 -153 -54 -160
3 -8 143 -93 310 -189 168 -96 305 -179 305 -183 0 -9 -377 -666 -391 -681 -5
-5 -13 -5 -21 1 -7 6 -87 53 -178 106 -91 52 -221 127 -289 166 -68 39 -131
71 -141 71 -11 0 -38 -26 -66 -63 -228 -300 -504 -579 -797 -805 -64 -50 -107
-90 -107 -101 0 -10 72 -143 161 -297 89 -153 167 -291 175 -306 l14 -26 -153
-88 c-83 -48 -236 -136 -339 -196 -103 -59 -191 -108 -195 -108 -5 0 -87 137
-183 305 -96 167 -181 307 -189 310 -7 3 -79 -21 -160 -54 -344 -139 -768
-248 -1076 -277 -38 -4 -76 -11 -82 -17 -10 -7 -13 -93 -13 -368 l0 -359 -400
0 -400 0 0 358 c0 265 -3 361 -12 370 -7 7 -26 12 -43 12 -42 0 -270 35 -386
59 -267 55 -548 142 -789 245 -46 20 -91 34 -100 31 -8 -3 -94 -142 -190 -310
-96 -167 -179 -305 -183 -305 -5 0 -92 49 -195 108 -103 60 -256 148 -340 196
-83 48 -152 89 -152 90 0 2 79 139 175 306 96 167 175 311 175 321 0 10 -43
50 -107 100 -282 217 -544 479 -762 762 -53 69 -89 107 -101 107 -16 0 -132
-65 -550 -307 -41 -23 -77 -39 -81 -35 -13 13 -389 671 -389 679 0 4 137 87
305 183 168 96 307 182 310 191 3 9 -8 45 -24 81 -134 300 -263 772 -301 1103
-6 55 -15 110 -20 123 l-10 22 -360 0 -360 0 0 400 0 400 360 0 360 0 10 23
c5 12 14 67 20 122 38 334 166 802 304 1109 14 33 24 66 21 75 -3 9 -142 95
-310 191 -167 96 -305 179 -305 184 0 4 88 161 196 347 l196 339 29 -15 c16
-9 153 -87 305 -175 151 -88 284 -160 294 -160 12 0 49 39 100 106 223 289
508 572 788 783 50 37 82 69 82 80 0 10 -79 155 -175 321 -96 167 -175 304
-175 306 0 5 678 394 686 394 5 0 88 -138 184 -305 96 -168 182 -307 190 -310
9 -3 54 11 100 31 243 103 519 189 789 245 116 24 344 59 387 59 16 0 35 5 42
12 9 9 12 105 12 370 l0 358 400 0 400 0 0 -359z"/>
<path d="M6016 9820 c-3 -18 -6 -48 -6 -66 l0 -34 65 0 65 0 0 60 0 60 -37 0
c-21 0 -47 3 -59 6 -18 5 -22 0 -28 -26z"/>
<path d="M5252 9800 c-18 -4 -35 -10 -38 -12 -5 -5 15 -108 21 -108 13 0 105
22 105 25 0 2 -5 27 -11 55 -11 53 -14 55 -77 40z"/>
<path d="M5102 9768 c-33 -7 -42 -13 -38 -26 3 -9 8 -34 12 -54 3 -21 8 -38
10 -38 1 0 26 5 54 11 l52 11 -7 37 c-14 78 -10 76 -83 59z"/>
<path d="M5605 9676 c-84 -26 -135 -66 -135 -104 0 -24 39 -69 95 -109 16 -12
27 -24 24 -28 -4 -3 -50 -13 -103 -22 -137 -23 -169 -2 -196 128 -7 32 -16 59
-21 59 -4 0 -31 -5 -59 -12 -50 -12 -52 -13 -46 -42 3 -17 9 -63 12 -102 6
-67 5 -72 -17 -88 -26 -18 -55 -21 -61 -7 -1 5 -79 -21 -173 -58 l-170 -67 3
-59 c2 -33 4 -60 5 -61 1 -1 55 5 120 14 65 8 120 12 124 9 3 -3 2 -19 -2 -34
-17 -68 -178 -172 -281 -181 -94 -8 -155 50 -177 168 l-12 62 -52 -4 c-29 -3
-56 -8 -59 -11 -14 -13 16 -143 46 -204 61 -124 162 -179 283 -153 92 19 192
75 267 149 87 86 114 141 108 224 l-4 62 38 2 c61 4 124 47 141 96 3 8 10 7
24 -5 38 -35 77 -41 171 -28 93 13 143 33 180 73 l23 24 56 -30 c45 -24 72
-31 134 -35 102 -6 139 2 176 38 l30 29 24 -25 c43 -47 68 -54 164 -47 67 5
94 11 121 29 24 16 34 19 34 10 0 -11 73 -86 83 -86 2 0 68 -13 145 -30 209
-44 262 -39 329 30 35 36 73 123 73 168 0 77 -53 162 -117 188 -91 39 -212 -7
-365 -138 -31 -26 -59 -48 -63 -48 -3 0 -12 15 -20 33 -11 27 -11 43 -1 94
l13 61 -43 11 c-80 20 -80 20 -100 -70 -19 -87 -43 -117 -85 -106 -12 3 -29 1
-39 -5 -23 -15 -69 2 -94 35 -14 19 -20 47 -24 107 l-5 80 -57 0 -57 0 -7 -87
c-5 -77 -9 -91 -31 -110 -22 -19 -35 -22 -104 -20 -44 1 -83 5 -87 9 -4 5 5
30 19 57 15 27 27 62 27 79 0 81 -110 124 -225 88z m1316 -205 c34 -27 32 -86
-5 -117 -15 -13 -39 -24 -54 -24 -31 1 -200 35 -208 43 -7 6 62 60 117 92 54
30 117 33 150 6z"/>
<path d="M7539 9316 c-57 -20 -93 -51 -121 -103 -72 -133 -31 -245 116 -314
185 -88 323 36 252 226 -57 150 -154 225 -247 191z m89 -160 c85 -97 46 -188
-55 -126 -66 40 -80 110 -30 145 32 23 52 18 85 -19z"/>
<path d="M3758 9285 l-47 -35 180 -262 c99 -145 184 -264 189 -266 5 -2 30 11
55 29 45 32 45 33 28 58 -75 115 -345 506 -351 508 -4 1 -28 -13 -54 -32z"/>
<path d="M8067 9148 c-163 -230 -186 -267 -203 -324 -24 -84 -7 -125 76 -186
36 -25 91 -69 124 -97 60 -52 118 -76 167 -69 24 4 27 1 32 -32 9 -66 64 -158
98 -163 9 -2 33 -17 53 -35 21 -18 53 -34 74 -38 l37 -6 -3 -48 c-5 -61 19
-113 67 -146 19 -13 48 -24 63 -24 27 0 28 -2 28 -47 1 -96 62 -173 137 -173
l32 0 -6 -48 c-4 -34 -1 -58 11 -80 10 -19 12 -33 6 -37 -13 -8 54 -141 87
-171 35 -33 112 -33 174 -1 40 21 149 144 149 168 0 10 -90 69 -105 68 -5 0
-27 -25 -48 -55 -43 -62 -60 -72 -83 -53 -25 20 -54 85 -44 95 6 6 2 25 -10
50 -27 54 -18 75 60 147 l61 57 -36 50 -36 50 -67 -50 c-101 -77 -144 -78
-150 -5 -3 36 1 43 66 104 l69 66 -34 45 c-19 25 -36 47 -38 48 -2 2 -36 -19
-76 -47 -77 -55 -106 -62 -132 -33 -36 39 -10 102 70 171 l46 39 -33 46 c-18
25 -37 46 -42 46 -4 0 -36 -20 -69 -45 -81 -59 -103 -64 -137 -32 -15 13 -37
28 -48 31 -12 4 -34 25 -50 47 -38 56 -43 127 -14 239 42 166 39 160 62 160
12 0 77 -29 145 -65 68 -36 127 -65 131 -65 8 0 35 90 29 96 -18 18 -331 164
-352 164 -50 0 -78 -43 -114 -180 -19 -69 -38 -133 -43 -142 -14 -29 -54 -21
-103 22 -25 22 -65 53 -90 70 -46 32 -60 57 -51 94 3 13 60 101 126 196 67 95
122 177 123 182 1 5 -19 24 -45 44 l-47 35 -94 -133z"/>
<path d="M8460 9048 c0 -7 -3 -23 -6 -35 -5 -20 9 -30 156 -103 89 -45 164
-79 166 -77 2 2 7 17 10 35 l6 31 -161 80 c-88 45 -163 81 -166 81 -3 0 -5 -6
-5 -12z"/>
<path d="M3605 8906 c-44 -19 -90 -76 -110 -136 -19 -57 -24 -188 -11 -282 7
-56 7 -58 -16 -58 -31 0 -82 32 -109 69 -13 17 -28 31 -34 31 -6 0 -28 -18
-50 -40 -43 -44 -45 -37 32 -122 48 -53 52 -74 23 -111 -11 -14 -20 -30 -20
-37 0 -6 -15 -31 -34 -56 l-34 -45 -7 31 c-15 70 -113 139 -178 124 -45 -9
-80 -37 -116 -91 -74 -112 -8 -243 122 -243 l49 0 -37 -47 c-80 -106 -104
-198 -70 -280 l15 -36 -31 7 c-17 3 -85 35 -151 71 -65 36 -123 63 -128 60 -6
-4 -21 -28 -34 -54 l-25 -48 72 -38 c89 -47 107 -62 107 -89 0 -36 -39 -130
-61 -148 -38 -32 -40 -31 -431 123 l-48 19 -16 -38 c-34 -80 -41 -74 186 -163
241 -94 275 -104 335 -94 67 10 102 50 145 166 l34 95 91 0 c109 0 180 25 249
85 l46 41 -42 48 -42 49 -35 -28 c-57 -45 -78 -53 -101 -41 -14 7 -20 21 -20
45 0 45 13 78 61 151 27 41 44 82 51 123 11 59 13 62 56 83 53 25 111 80 135
128 10 19 29 50 43 69 16 23 24 47 24 77 0 43 1 43 29 38 48 -10 110 27 221
131 136 126 153 150 158 225 5 73 -20 130 -82 188 -63 58 -145 77 -211 48z
m139 -147 c44 -51 36 -72 -64 -173 l-90 -91 0 100 c0 79 4 108 19 135 34 65
94 78 135 29z m-624 -619 c25 -25 27 -85 4 -94 -53 -20 -112 12 -99 53 6 21
50 61 66 61 5 0 18 -9 29 -20z"/>
<path d="M4910 8457 c-50 -25 -39 -48 82 -169 335 -333 464 -744 529 -1683 7
-98 13 -641 16 -1392 l5 -1233 169 0 169 0 0 1728 c0 1624 1 1729 18 1761 48
95 171 103 229 14 17 -26 18 -126 23 -1763 l5 -1735 167 -3 166 -2 5 1187 c5
1167 9 1346 43 1718 67 754 229 1170 572 1469 50 43 55 82 12 103 -37 19
-2173 19 -2210 0z"/>
<path d="M9082 8352 c-18 -15 -32 -31 -32 -35 0 -5 12 -25 27 -45 15 -20 28
-39 29 -40 2 -2 23 12 48 31 l45 34 -30 42 c-17 22 -36 41 -42 41 -7 0 -27
-13 -45 -28z"/>
<path d="M8943 8330 c-24 -18 -43 -34 -43 -37 0 -8 54 -83 61 -83 3 0 24 14
47 31 45 33 45 37 0 92 l-23 28 -42 -31z"/>
<path d="M2802 8306 c-18 -24 -32 -48 -32 -53 0 -9 82 -73 92 -73 7 0 68 88
68 97 -1 7 -84 73 -93 73 -2 0 -18 -20 -35 -44z"/>
<path d="M9026 8219 c-21 -15 -41 -30 -43 -33 -7 -7 50 -86 61 -86 7 0 42 23
85 57 4 3 -48 81 -58 88 -4 2 -24 -10 -45 -26z"/>
<path d="M9315 7743 c-27 -14 -51 -27 -53 -28 -6 -6 49 -105 58 -105 17 0 100
44 100 52 0 9 -49 108 -53 108 -1 -1 -24 -13 -52 -27z"/>
<path d="M4161 7669 c-153 -40 -159 -77 -27 -178 96 -74 90 -11 82 -935 l-7
-802 50 -12 c129 -30 312 -123 428 -218 23 -19 44 -34 47 -34 3 0 6 224 6 499
0 490 0 499 21 525 65 82 189 73 229 -17 18 -40 19 -70 13 -654 l-6 -613 84
-87 c47 -49 114 -132 149 -185 l65 -98 5 943 c4 518 2 978 -2 1022 -45 433
-338 761 -761 850 -99 22 -284 19 -376 -6z"/>
<path d="M7461 7675 c-338 -74 -599 -302 -707 -619 -56 -165 -56 -148 -54
-1211 1 -539 2 -981 4 -982 1 -2 31 40 65 93 35 53 101 135 148 183 l84 86 -3
625 c-2 578 -1 627 15 657 43 81 165 84 226 7 21 -26 21 -35 21 -525 0 -275 3
-499 6 -499 3 0 24 15 47 34 117 95 299 188 429 218 l50 12 -7 807 -7 808 21
44 c12 25 34 53 48 62 57 37 113 98 113 121 0 32 -31 50 -125 74 -93 24 -274
26 -374 5z"/>
<path d="M9310 7389 c-162 -66 -296 -122 -299 -125 -6 -5 19 -81 33 -100 9
-12 57 4 309 107 163 67 297 125 297 129 0 4 -10 30 -22 58 l-23 51 -295 -120z"/>
<path d="M3574 7154 c-15 -22 -16 -32 -6 -75 9 -35 12 -236 12 -670 l0 -619
180 0 180 0 0 383 c0 528 -17 679 -88 811 -52 96 -173 195 -239 196 -13 0 -30
-11 -39 -26z"/>
<path d="M8294 7161 c-135 -62 -229 -226 -253 -443 -6 -54 -11 -284 -11 -513
l0 -415 179 0 180 0 3 683 c3 584 1 684 -11 695 -20 16 -38 15 -87 -7z"/>
<path d="M2500 7084 c-14 -3 -39 -10 -56 -15 l-32 -10 22 -57 c20 -49 26 -57
47 -55 13 2 58 4 99 5 63 2 82 -1 117 -21 51 -29 79 -66 95 -124 27 -101 -35
-221 -128 -246 -32 -8 -53 -8 -98 4 -31 8 -60 15 -64 15 -7 0 -52 -83 -52 -94
0 -2 24 -14 53 -27 76 -34 203 -34 271 1 91 46 147 134 162 256 19 152 -85
303 -239 349 -55 16 -158 26 -197 19z"/>
<path d="M9174 7065 c-24 -37 -43 -95 -44 -135 0 -50 47 -217 76 -267 39 -67
102 -90 185 -69 65 17 83 35 200 200 l99 140 -52 33 c-29 18 -55 33 -58 33 -3
0 -48 -61 -100 -135 -52 -74 -103 -138 -114 -141 -28 -9 -45 16 -72 107 -28
96 -29 126 -10 174 l15 34 -44 25 c-54 32 -61 32 -81 1z"/>
<path d="M2332 6785 c-7 -32 -10 -61 -7 -65 2 -4 22 -10 44 -14 22 -3 46 -8
54 -12 10 -4 17 7 26 40 18 74 16 83 -26 90 -21 3 -47 9 -59 12 -19 5 -22 -1
-32 -51z"/>
<path d="M3629 5555 c-272 -46 -552 -185 -802 -400 -113 -96 -141 -151 -97
-190 21 -19 68 -18 200 4 213 36 526 -12 723 -110 267 -134 460 -325 714 -706
l114 -173 175 0 c107 0 174 4 174 10 0 15 -166 322 -228 423 -119 194 -278
357 -477 489 -153 102 -155 104 -155 146 0 25 8 42 34 68 51 51 95 47 225 -16
371 -181 625 -493 807 -990 l47 -130 179 0 c102 0 178 4 178 9 0 24 -131 333
-199 471 -143 287 -294 505 -481 690 -179 177 -357 293 -555 359 -173 58 -399
76 -576 46z"/>
<path d="M7991 5555 c-176 -31 -369 -115 -535 -232 -44 -32 -133 -110 -196
-173 -187 -186 -339 -403 -481 -690 -68 -138 -199 -447 -199 -471 0 -5 76 -9
178 -9 l179 0 47 130 c182 496 437 809 807 990 130 63 174 67 225 16 26 -26
34 -43 34 -68 0 -42 -2 -44 -160 -149 -162 -108 -337 -279 -433 -424 -65 -99
-267 -466 -267 -485 0 -6 64 -10 174 -10 l175 0 114 173 c254 381 447 572 714
706 197 98 510 146 723 110 132 -22 179 -23 200 -4 44 39 16 94 -97 190 -229
196 -492 334 -748 391 -100 22 -349 27 -454 9z"/>
<path d="M2677 4820 c-108 -28 -201 -104 -248 -204 -25 -54 -53 -156 -44 -164
1 -2 52 2 111 9 225 24 507 -3 686 -67 104 -37 252 -115 333 -176 144 -108
298 -285 404 -465 24 -40 46 -73 50 -73 3 0 17 16 30 35 39 58 145 151 195
171 25 10 46 23 46 28 0 17 -123 215 -188 303 -36 48 -115 138 -176 198 -205
205 -426 326 -704 386 -109 23 -428 36 -495 19z"/>
<path d="M8905 4814 c-455 -70 -817 -336 -1091 -801 -30 -50 -54 -95 -54 -100
0 -4 21 -17 46 -27 50 -20 156 -113 195 -171 13 -19 27 -35 30 -35 4 0 30 39
58 86 222 371 524 597 904 675 130 26 364 36 511 20 59 -7 110 -11 112 -9 2 2
-3 32 -11 66 -38 160 -130 258 -280 298 -65 18 -301 17 -420 -2z"/>
<path d="M5955 3781 c-91 -23 -163 -81 -202 -159 -36 -74 -39 -182 -6 -253 89
-195 350 -234 492 -73 96 109 96 279 0 388 -67 76 -196 120 -284 97z"/>
<path d="M4645 3743 c-327 -45 -626 -343 -740 -738 -33 -115 -53 -338 -36
-396 22 -73 -30 -69 921 -69 l850 0 -2 328 -3 327 -582 3 c-390 1 -583 6 -583
12 0 51 68 127 145 162 50 23 53 23 531 26 l482 3 6 37 c3 20 6 99 6 175 l0
137 -482 -1 c-266 -1 -496 -4 -513 -6z"/>
<path d="M6400 3576 l0 -175 483 -3 482 -3 69 -34 c53 -26 74 -43 97 -79 57
-89 106 -82 -551 -82 l-580 0 0 -330 0 -330 860 2 859 3 23 23 c19 18 23 36
26 98 12 219 -62 472 -193 670 -134 201 -300 330 -501 390 -52 15 -121 18
-566 21 l-508 4 0 -175z"/>
<path d="M5983 2858 c-11 -13 -114 -142 -228 -288 l-207 -265 78 -7 c148 -14
259 -90 347 -238 18 -30 39 -55 46 -55 7 0 27 25 43 55 67 121 141 185 256
220 35 11 86 20 113 20 27 0 49 3 49 8 -1 15 -446 567 -461 570 -8 1 -24 -8
-36 -20z"/>
</g>
</svg>
